<svg xmlns="http://www.w3.org/2000/svg" xmlns:xlink="http://www.w3.org/1999/xlink" width="39" height="37" viewBox="0 0 39 37"><defs><style>.a{fill:#fff;stroke:#707070;}.b{clip-path:url(#a);}.c{fill:#6da544;}.d{fill:#ffda44;}.e{fill:#f0f0f0;}.f{fill:#0052b4;}</style><clipPath id="a"><rect class="a" width="39" height="37" transform="translate(852 27)"/></clipPath></defs><g class="b" transform="translate(-852 -27)"><g transform="translate(853 27)"><circle class="c" cx="18.5" cy="18.5" r="18.5"/><path class="d" d="M18.5,7.239,33.783,18.5,18.5,29.761,3.217,18.5Z"/><circle class="e" cx="6.435" cy="6.435" r="6.435" transform="translate(12.065 12.065)"/><path class="f" d="M15.283,18.1a10.82,10.82,0,0,0-3.215.486,6.433,6.433,0,0,0,11.7,3.607A10.844,10.844,0,0,0,15.283,18.1Z"/><path class="f" d="M24.816,19.733A6.435,6.435,0,0,0,12.587,15.96a13.264,13.264,0,0,1,12.229,3.773Z"/></g></g></svg>