<svg xmlns="http://www.w3.org/2000/svg" xmlns:xlink="http://www.w3.org/1999/xlink" width="113" height="91" viewBox="0 0 113 91"><defs><style>.a{fill:red;stroke:#707070;}.b{clip-path:url(#a);}.c{fill:#e30613;}.d{fill:#003c74;}</style><clipPath id="a"><rect class="a" width="113" height="91" transform="translate(-0.249 0.112)"/></clipPath></defs><g class="b" transform="translate(0.249 -0.112)"><g transform="translate(0.094 0.006)"><path class="c" d="M69.692,144.091h1.1a1.978,1.978,0,0,1-.006,3.954h-1.1Zm.774,3.285h.127a1.307,1.307,0,1,0,0-2.613h-.127Z" transform="translate(-33.048 -57.374)"/><path class="c" d="M76.689,144.763v.87h1.226v.672H76.689v1.068h1.273v.672H75.915v-3.954h2.047v.672H76.689Z" transform="translate(-34.559 -57.374)"/><path class="c" d="M83.19,144.927a.714.714,0,0,0-.591-.325.473.473,0,0,0-.483.446c0,.666,1.567.387,1.567,1.715a1.249,1.249,0,0,1-1.3,1.353,1.407,1.407,0,0,1-1.217-.771l.5-.489a.814.814,0,0,0,.712.576.527.527,0,0,0,.508-.573c0-.409-.375-.526-.684-.644-.508-.211-.882-.468-.882-1.081a1.15,1.15,0,0,1,1.155-1.183,1.611,1.611,0,0,1,1.081.44Z" transform="translate(-35.833 -57.34)"/><path class="c" d="M87.073,144.091h1.1a1.978,1.978,0,0,1-.006,3.954h-1.1v-3.954Zm.771,3.285h.127a1.307,1.307,0,1,0,0-2.613h-.127Z" transform="translate(-37.267 -57.374)"/><path class="c" d="M93.868,144.763v.87H95.1v.672H93.868v1.068h1.276v.672H93.1v-3.954h2.044v.672H93.868Z" transform="translate(-38.73 -57.374)"/><path class="c" d="M102.913,144.763v-.672H104.2v3.954h-.771v-3.282Z" transform="translate(-41.112 -57.374)"/><path class="c" d="M112.24,144.763v-.672h2.827L112.9,148.15l-.635-.362,1.632-3.025Z" transform="translate(-43.375 -57.374)"/><path class="c" d="M108.831,145.935a.96.96,0,0,0,.585-.87,1.308,1.308,0,0,0-2.6,0,.954.954,0,0,0,.585.87,1.015,1.015,0,0,0-.718,1.009,1.33,1.33,0,0,0,1.486,1.251,1.261,1.261,0,0,0,1.387-1.251A1.019,1.019,0,0,0,108.831,145.935Zm-.718-1.514a.6.6,0,1,1-.6.6A.6.6,0,0,1,108.113,144.421Zm0,3.211a.69.69,0,1,1,.687-.69A.688.688,0,0,1,108.113,147.632Z" transform="translate(-42.026 -57.323)"/><path class="d" d="M39.124,101.654a1.3,1.3,0,0,0-.991-.477,1.55,1.55,0,0,0,0,3.065,1.362,1.362,0,0,0,1-.48v1.047a2.365,2.365,0,0,1-1.022.266,2.373,2.373,0,0,1,.019-4.734,2.09,2.09,0,0,1,1,.263v1.05Z" transform="translate(-24.847 -46.754)"/><path class="d" d="M45.012,105.079a2.373,2.373,0,1,1,2.223-2.375A2.207,2.207,0,0,1,45.012,105.079Zm0-3.87a1.516,1.516,0,1,0,1.319,1.461A1.378,1.378,0,0,0,45.012,101.208Z" transform="translate(-26.518 -46.754)"/><path class="d" d="M52,104.235h1.443V105H51.121v-4.5H52v3.734Z" transform="translate(-28.54 -46.793)"/><path class="d" d="M57.877,100.773v.988h1.4v.762h-1.4v1.217h1.449v.762H57v-4.493h2.325v.765Zm1.108-1.932-.9.895-.424-.263.715-1Z" transform="translate(-29.967 -46.301)"/><path class="d" d="M66.948,102.568v.111c0,1.269-.65,2.4-2.047,2.4a2.2,2.2,0,0,1-2.14-2.347,2.235,2.235,0,0,1,2.2-2.387,1.941,1.941,0,0,1,1.777,1.071l-.774.418a1.139,1.139,0,0,0-1.025-.715c-.848,0-1.263.864-1.263,1.61a1.422,1.422,0,0,0,1.269,1.573,1.061,1.061,0,0,0,1.025-1.019h-.954v-.715h1.935Z" transform="translate(-31.366 -46.754)"/><path class="d" d="M71.64,105h-.876v-4.5h.876Z" transform="translate(-33.308 -46.793)"/><path class="d" d="M76.532,105.079a2.373,2.373,0,1,1,2.223-2.375A2.207,2.207,0,0,1,76.532,105.079Zm0-3.87a1.516,1.516,0,1,0,1.319,1.461A1.378,1.378,0,0,0,76.532,101.208Z" transform="translate(-34.168 -46.754)"/><path class="d" d="M88.454,103.529h.012l1-3.028h.944l-1.746,4.613h-.514L86.436,100.5h.944Z" transform="translate(-37.112 -46.793)"/><path class="d" d="M95.489,105h-.876v-4.5h.876Z" transform="translate(-39.097 -46.793)"/><path class="d" d="M101.174,101.454a.808.808,0,0,0-.672-.368.535.535,0,0,0-.548.508c0,.759,1.783.443,1.783,1.948a1.422,1.422,0,0,1-1.48,1.539,1.6,1.6,0,0,1-1.384-.876l.567-.554a.922.922,0,0,0,.811.656.6.6,0,0,0,.579-.65c0-.464-.43-.6-.78-.734-.579-.238-1-.529-1-1.229a1.31,1.31,0,0,1,1.313-1.347,1.84,1.84,0,0,1,1.226.5Z" transform="translate(-40.131 -46.755)"/><path class="d" d="M108.242,101.654a1.3,1.3,0,0,0-.991-.477,1.549,1.549,0,0,0-.006,3.065,1.357,1.357,0,0,0,1-.48v1.047a2.365,2.365,0,0,1-1.022.266,2.373,2.373,0,0,1,.015-4.734,2.09,2.09,0,0,1,1,.263v1.05Z" transform="translate(-41.623 -46.754)"/><path class="d" d="M114.041,105.079a2.373,2.373,0,1,1,2.226-2.375A2.21,2.21,0,0,1,114.041,105.079Zm0-3.87a1.516,1.516,0,1,0,1.319,1.461A1.378,1.378,0,0,0,114.041,101.208Z" transform="translate(-43.272 -46.754)"/><path class="d" d="M120.335,100.5h.721l2.282,3.022h.012V100.5h.876V105h-.694l-2.31-3.053h-.009V105h-.876v-4.5Z" transform="translate(-45.341 -46.793)"/><path class="d" d="M128.521,100.5h1.251a2.249,2.249,0,0,1,0,4.5h-1.248v-4.5Zm.879,3.734h.142a1.485,1.485,0,1,0,0-2.969H129.4Z" transform="translate(-47.327 -46.793)"/><path class="d" d="M136.044,101.266v.988h1.4v.762h-1.4v1.217h1.449v.762h-2.328V100.5h2.328v.765Z" transform="translate(-48.94 -46.793)"/><path class="d" d="M145.251,100.5H146.5a2.249,2.249,0,0,1-.009,4.5h-1.245v-4.5Zm.876,3.734h.142a1.485,1.485,0,1,0,0-2.969h-.142Z" transform="translate(-51.388 -46.793)"/><path class="d" d="M152.657,101.266v.988h1.393v.762h-1.393v1.217h1.449v.762h-2.328V100.5h2.328v.765Z" transform="translate(-52.973 -46.793)"/><path class="d" d="M52.557,113.166A4.94,4.94,0,0,0,51.5,114.7c0-.378.006-.774.009-1.121,0-.412.006-.768.006-.96V112.5H51.4c-.118,0-.477,0-.91,0-.69,0-1.186.006-1.641.006h-.2l.87,1.731v9.893h3.133l-.848-1.74v-2.954a7.911,7.911,0,0,1,.694-3.725,2.208,2.208,0,0,1,2.075-1.208,3.588,3.588,0,0,1,.641.062l.133.025.009-2.291h-.6A2.969,2.969,0,0,0,52.557,113.166Z" transform="translate(-27.942 -49.658)"/><path class="d" d="M93.5,114.65a2.267,2.267,0,0,1-1.489-1.975,1.993,1.993,0,0,1,.7-1.6,3.277,3.277,0,0,1,2.05-.557,5.628,5.628,0,0,1,2.61.5l.118-1.9a12.19,12.19,0,0,0-2.626-.415,5.634,5.634,0,0,0-3.685,1.139,3.563,3.563,0,0,0-1.437,2.8,3.255,3.255,0,0,0,1.886,3.4l2.941,1.375c1,.471,1.489,1.084,1.489,1.876a2.035,2.035,0,0,1-.79,1.78,3.7,3.7,0,0,1-2.127.557,7.625,7.625,0,0,1-1.434-.136,12.488,12.488,0,0,1-1.672-.384l-.152-.059-.118,2.071.1.028a14.1,14.1,0,0,0,3.115.328,5.752,5.752,0,0,0,3.852-1.223,4.125,4.125,0,0,0,1.434-3.239C98.263,115.743,95.043,115.368,93.5,114.65Z" transform="translate(-37.914 -48.783)"/><path class="d" d="M140.7,112.612h-2.27v5.521a5.076,5.076,0,0,1-.879,3.059,2.616,2.616,0,0,1-2.208,1.183,1.575,1.575,0,0,1-1.39-.57,3.239,3.239,0,0,1-.409-1.821v-7.406h-.464c-.307,0-.786,0-1.725,0h-.118l.037,8.032a4.225,4.225,0,0,0,.808,2.706,3.263,3.263,0,0,0,2.688,1.019,4.319,4.319,0,0,0,2.5-.725,4.6,4.6,0,0,0,1.393-1.5c.053.7.223,1.827.248,1.991l.015.1,3.449.009v-1.7L140.7,122.5Z" transform="translate(-47.986 -49.724)"/><path class="d" d="M29.418,110.1a5.65,5.65,0,0,0-3.728-1.115c-3.468,0-4.192-.022-4.2-.022l-.186.006.864,1.731v12.642h2.991l-.858-1.734V117.9h.988a5.83,5.83,0,0,0,3.932-1.322,4.328,4.328,0,0,0,1.539-3.412A3.811,3.811,0,0,0,29.418,110.1Zm-1.91,5.248a3.549,3.549,0,0,1-2.362.749c-.2,0-.4,0-.6-.019-.149-.009-.288-.025-.412-.043v-5.257h1.192a3.509,3.509,0,0,1,2.319.647,2.416,2.416,0,0,1,.737,1.92A2.48,2.48,0,0,1,27.507,115.353Z" transform="translate(-21.302 -48.848)"/><path class="d" d="M39.206,112.4a5.992,5.992,0,0,0,0,11.939,5.992,5.992,0,0,0,0-11.939Zm-.068,1.793c1.774,0,3.217,1.889,3.217,4.208s-1.443,4.208-3.217,4.208-3.217-1.886-3.217-4.208S37.367,114.192,39.138,114.192Z" transform="translate(-24.319 -49.681)"/><path class="d" d="M74.508,112.4a5.992,5.992,0,1,0,5.477,5.966A5.744,5.744,0,0,0,74.508,112.4Zm-.065,1.793c1.774,0,3.217,1.889,3.217,4.208s-1.443,4.208-3.217,4.208-3.217-1.886-3.217-4.208S72.669,114.192,74.443,114.192Z" transform="translate(-32.888 -49.681)"/><path class="d" d="M160.159,112.4a5.992,5.992,0,1,0,5.477,5.966A5.742,5.742,0,0,0,160.159,112.4Zm-.068,1.793c1.774,0,3.217,1.889,3.217,4.208s-1.443,4.208-3.217,4.208-3.214-1.886-3.214-4.208S158.32,114.192,160.091,114.192Z" transform="translate(-53.678 -49.681)"/><path class="d" d="M125.978,112.556c-.409,0-1.257-.04-2.075-.08-.734-.034-1.43-.068-1.734-.068a5.838,5.838,0,0,0-4.471,1.725,6.7,6.7,0,0,0-1.607,4.728,6.353,6.353,0,0,0,1.1,4.022,3.875,3.875,0,0,0,3.2,1.393,3.925,3.925,0,0,0,2.273-.7,4.262,4.262,0,0,0,1.2-1.248c-.006.077-.012.155-.019.229-.015.279-.019.635-.019,1.084v1.112a3.216,3.216,0,0,1-.876,2.551,4.069,4.069,0,0,1-2.672.755c-.737,0-1.585.034-2.6,0v1.994c.167,0,1.793.022,2.424.022,2.214,0,3.787-.5,4.666-1.486a5.175,5.175,0,0,0,1.322-3.545V112.556Zm-2.149,5.561a5.553,5.553,0,0,1-.811,2.966,2.413,2.413,0,0,1-2.155,1.279,1.958,1.958,0,0,1-1.787-.9,5.281,5.281,0,0,1-.591-2.774,5.093,5.093,0,0,1,.91-3.356,3.222,3.222,0,0,1,2.554-1.043c.362,0,.706,0,1.04-.006.282,0,.557,0,.839,0Z" transform="translate(-44.31 -49.683)"/><path class="d" d="M110.61,113.811a4.3,4.3,0,0,0-3.52-1.461,4.634,4.634,0,0,0-3.784,1.687,6.646,6.646,0,0,0-1.365,4.322,5.856,5.856,0,0,0,1.307,4.288,5.564,5.564,0,0,0,3.957,1.607c.05,0,3.759,0,3.812,0v-1.917h-3.589a3.063,3.063,0,0,1-2.366-1.127,3.583,3.583,0,0,1-.771-2.644h7.347C111.641,118.577,112.046,115.57,110.61,113.811Zm-6.214,3.075a2.991,2.991,0,0,1,.79-2.115,2.852,2.852,0,0,1,2.034-.69,2.2,2.2,0,0,1,1.855.957,3.5,3.5,0,0,1,.533,1.845H104.4Z" transform="translate(-40.875 -49.669)"/><path class="d" d="M150.036,113.166a4.94,4.94,0,0,0-1.053,1.536c0-.378.006-.774.009-1.121,0-.412.006-.768.006-.96V112.5h-.118c-.121,0-.477,0-.91,0-.69,0-1.186.006-1.641.006h-.2l.87,1.731v9.893h3.133l-.848-1.74v-2.954a7.873,7.873,0,0,1,.694-3.725,2.213,2.213,0,0,1,2.078-1.208,3.615,3.615,0,0,1,.641.062l.133.025.009-2.291h-.6A2.976,2.976,0,0,0,150.036,113.166Z" transform="translate(-51.603 -49.658)"/><g transform="translate(30.573)"><path class="c" d="M86.082,49.052,84.726,36.413l-11.1-6.778,5.74,16.042a1.358,1.358,0,0,1-.266,1.384,1.308,1.308,0,0,1-1.434.248l-16-5.815,6.778,11.3S81.422,54.1,81.973,54.1a4.173,4.173,0,0,0,4.174-4.171A5.918,5.918,0,0,0,86.082,49.052Z" transform="translate(-61.674 -29.592)"/><path class="c" d="M96.424,49.038,97.78,36.4l11.184-6.821-5.827,16.085a1.365,1.365,0,0,0,.266,1.384,1.312,1.312,0,0,0,1.437.248l16-5.815-6.784,11.3s-13.206,1.307-13.528,1.307a4.171,4.171,0,0,1-4.174-4.171A6.365,6.365,0,0,1,96.424,49.038Z" transform="translate(-70.093 -29.578)"/><path class="c" d="M86.1,69.385,84.746,82.027l-11.14,6.734,5.781-16a1.366,1.366,0,0,0-.266-1.387,1.314,1.314,0,0,0-1.434-.248L61.732,76.9l6.737-11.258s12.97-1.307,13.521-1.307A4.168,4.168,0,0,1,86.161,68.5,5.923,5.923,0,0,1,86.1,69.385Z" transform="translate(-61.688 -38.014)"/><path class="c" d="M96.433,69.385l1.356,12.642,11.184,6.734-5.824-16a1.373,1.373,0,0,1,.266-1.387,1.317,1.317,0,0,1,1.437-.248l16,5.731-6.784-11.218s-12.946-1.322-13.528-1.307A4.209,4.209,0,0,0,96.371,68.5,5.536,5.536,0,0,0,96.433,69.385Z" transform="translate(-70.096 -38.014)"/></g><path class="c" d="M119.252,145.935a.956.956,0,0,0,.582-.87,1.306,1.306,0,0,0-2.6,0,.956.956,0,0,0,.582.87,1.015,1.015,0,0,0-.718,1.009,1.357,1.357,0,0,0,1.486,1.251,1.248,1.248,0,0,0,1.39-1.251A1.019,1.019,0,0,0,119.252,145.935Zm-.721-1.514a.6.6,0,1,1-.6.6A.6.6,0,0,1,118.531,144.421Zm0,3.211a.69.69,0,1,1,.69-.69A.688.688,0,0,1,118.531,147.632Z" transform="translate(-44.555 -57.323)"/><path class="d" d="M66.715,113.609v-2H63.523v-2.722H61.235v2.722H58.984v2h2.251v6.363a4.247,4.247,0,0,0,.681,2.715,3.159,3.159,0,0,0,2.483.808c.752,0,2.248-.053,2.248-.053V121.5s-1.3-.006-1.61-.006c-.613,0-1.093-.108-1.282-.393a4.1,4.1,0,0,1-.229-1.864v-5.632Z" transform="translate(-30.449 -48.829)"/></g></g></svg>