<?xml version="1.0" encoding="utf-8"?>
<!-- Generator: Adobe Illustrator 24.1.1, SVG Export Plug-In . SVG Version: 6.00 Build 0)  -->
<svg version="1.1" id="Layer_1" xmlns="http://www.w3.org/2000/svg" xmlns:xlink="http://www.w3.org/1999/xlink" x="0px" y="0px"
	 viewBox="0 0 167.6 179.3" style="enable-background:new 0 0 167.6 179.3;" xml:space="preserve">
<g>
	<path d="M525.2,170.6c-22.8,0-45.6,0-68.4,0c-9.1,0-15-7.6-12.5-15.9c1.6-5.2,6.1-8.5,12.1-8.5c14.5,0,28.9,0,43.4,0
		c31.2,0,62.3,0,93.5,0c9.2,0,15.3,8,12.4,16.1c-1.8,5.1-6.4,8.2-12.4,8.2C570.6,170.6,547.9,170.6,525.2,170.6z"/>
	<path d="M544.5,100.9c-16.5,0-33,0.1-49.5,0c-8.5,0-14.1-7.3-12.1-15.3c1.2-4.7,4.3-7.6,9-8.6c1.3-0.3,2.7-0.4,4-0.4
		c32.3,0,64.6,0,97,0c5.3,0,9.5,2,12,6.7c4.3,8-1.6,17.6-11,17.7C577.5,101,561,100.9,544.5,100.9z"/>
	<path d="M565.9,31.1c-9.6,0-19.2,0.1-28.8,0c-5.3-0.1-9.9-3.9-11.2-8.8c-1.3-4.9,0.4-10.4,4.8-13.1c2.3-1.4,5.3-2.3,7.9-2.3
		c18.2-0.2,36.4-0.1,54.5-0.1c7.5,0,13.1,5.4,13,12.3c-0.1,6.9-5.6,12-13.1,12.1C583.9,31.2,574.9,31.1,565.9,31.1
		C565.9,31.1,565.9,31.1,565.9,31.1z"/>
</g>
<g>
	<path d="M1443.8,543.6c-55,0.1-100.9-45.8-100.7-100.7c0.1-55.4,45.5-100.7,100.8-100.5c55.6,0.1,100.7,45.1,100.7,100.6
		C1544.6,498.1,1499.1,543.5,1443.8,543.6z M1443.8,531.7c48.9,0,89-40,88.9-88.8c0-48.9-40-88.8-88.9-88.8
		c-48.8,0-89.1,40.4-88.7,89C1355.4,492.1,1395,531.7,1443.8,531.7z"/>
	<g>
		<path d="M1444.1,465.6c10.9,0,21.9,0,32.8,0c1.3,0,2.5,0,3.8,0.2c3.6,0.5,6.5,3.5,6.8,6.7c0.3,3.6-2,6.7-5.9,7.7
			c-1.4,0.4-2.9,0.5-4.4,0.5c-22.2,0-44.5,0-66.7,0c-0.8,0-1.6,0-2.4-0.1c-4.7-0.5-7.9-3.8-7.8-7.9c0.2-3.9,3.5-7,8.2-7
			C1420.4,465.5,1432.2,465.6,1444.1,465.6C1444.1,465.6,1444.1,465.6,1444.1,465.6z"/>
		<path d="M1444.1,435.4c10.9,0,21.9,0,32.8,0c1.3,0,2.5,0,3.8,0.2c3.6,0.5,6.5,3.5,6.8,6.7c0.3,3.6-2,6.7-5.9,7.7
			c-1.4,0.4-2.9,0.5-4.4,0.5c-22.2,0-44.5,0-66.7,0c-0.8,0-1.6,0-2.4-0.1c-4.7-0.5-7.9-3.8-7.8-7.9c0.2-3.9,3.5-7,8.2-7
			C1420.4,435.3,1432.2,435.4,1444.1,435.4C1444.1,435.4,1444.1,435.4,1444.1,435.4z"/>
		<path d="M1444.1,405.2c10.9,0,21.9,0,32.8,0c1.3,0,2.5,0,3.8,0.2c3.6,0.5,6.5,3.5,6.8,6.7c0.3,3.6-2,6.7-5.9,7.7
			c-1.4,0.4-2.9,0.5-4.4,0.5c-22.2,0-44.5,0-66.7,0c-0.8,0-1.6,0-2.4-0.1c-4.7-0.5-7.9-3.8-7.8-7.9c0.2-3.9,3.5-7,8.2-7
			C1420.4,405.1,1432.2,405.2,1444.1,405.2C1444.1,405.2,1444.1,405.2,1444.1,405.2z"/>
	</g>
</g>
<g>
	<path d="M101.5-185.4c-26.4,0-52.8,0-79.3,0c-8.7,0-14.8-4.7-16.7-12.5c-2.3-9.6,4.8-19.1,14.7-19.6c0.5,0,1,0,1.5,0
		c53.1,0,106.3,0,159.4,0c7.4,0,13.3,4.1,15.6,10.8c2.3,6.5,0.3,13.4-5.1,17.8c-3.4,2.8-7.3,3.6-11.6,3.6
		C153.9-185.4,127.7-185.4,101.5-185.4z"/>
	<path d="M101.4-346c26.4,0,52.9,0,79.3,0c8.3,0,14.8,4.9,16.5,12.4c2.3,10-4.8,19.2-15.2,19.8c-0.6,0-1.2,0-1.8,0
		c-52.7,0-105.3,0-158,0c-9.6,0-16.7-6.2-17.3-15c-0.6-9.6,6.7-17.2,16.8-17.2c22.3,0,44.6,0,66.9,0C93-346,97.2-346,101.4-346z"/>
	<path d="M101.3-281.7c26.6,0,53.2,0,79.9,0c11.8,0,19.7,11.3,15.4,22c-2.5,6.3-8.2,10.1-15.5,10.1c-10.3,0.1-20.6,0-30.9,0
		c-42.5,0-85.1,0-127.6,0c-8.5,0-14.7-4.4-16.8-11.7c-3-10.4,4.7-20.5,15.8-20.5C48.1-281.8,74.7-281.7,101.3-281.7z"/>
</g>
<g>
	<path d="M614.3,1131.9c0,14.7,0,29.1,0,43.7c-14.7,0-29.4,0-44.1,0c0-14.6,0-29.1,0-43.7C584.9,1131.9,599.4,1131.9,614.3,1131.9z"
		/>
	<path d="M570.2,1112.2c0-14.7,0-29.1,0-43.7c14.7,0,29.3,0,44,0c0,14.5,0,29,0,43.7C599.5,1112.2,584.9,1112.2,570.2,1112.2z"/>
	<path d="M487.3,1175.6c-14.7,0-29.1,0-43.6,0c0-14.6,0-29,0-43.7c14.5,0,29,0,43.6,0C487.3,1146.5,487.3,1161,487.3,1175.6z"/>
	<path d="M550.6,1131.9c0,14.6,0,29.1,0,43.7c-14.6,0-29,0-43.7,0c0-14.6,0-29.1,0-43.7C521.5,1131.9,536,1131.9,550.6,1131.9z"/>
	<path d="M570.2,1195.3c14.7,0,29.2,0,43.9,0c0,14.6,0,29.1,0,43.7c-14.6,0-29.2,0-43.9,0C570.2,1224.5,570.2,1210,570.2,1195.3z"/>
	<path d="M443.7,1112.2c0-14.6,0-29,0-43.6c14.5,0,28.9,0,43.5,0c0,14.4,0,28.9,0,43.6C472.8,1112.2,458.4,1112.2,443.7,1112.2z"/>
	<path d="M550.5,1112.3c-14.6,0-29,0-43.6,0c0-14.6,0-29,0-43.7c14.4,0,28.9,0,43.6,0C550.5,1083.1,550.5,1097.5,550.5,1112.3z"/>
	<path d="M443.7,1239c0-14.6,0-29,0-43.6c14.5,0,28.9,0,43.5,0c0,14.5,0,28.9,0,43.6C472.9,1239,458.4,1239,443.7,1239z"/>
	<path d="M506.9,1239c0-14.8,0-29.1,0-43.6c14.6,0,29.1,0,43.7,0c0,14.5,0,29,0,43.6C536,1239,521.5,1239,506.9,1239z"/>
</g>
<g>
	<path d="M989-194.4c-27.2,0-54.5,0-81.7,0c-1.7,0-3.6,0-5.2-0.7c-2.6-1.1-3.9-3.4-3.7-6.3c0.3-2.8,1.9-4.8,4.6-5.6
		c1.2-0.4,2.6-0.4,3.8-0.4c54.8,0,109.7,0,164.5,0c1.5,0,3,0.1,4.4,0.5c2.8,0.9,4.6,4,4.2,6.8c-0.5,3-2.6,5.2-5.7,5.5
		c-1.2,0.1-2.4,0.1-3.6,0.1C1043.5-194.4,1016.2-194.4,989-194.4z"/>
	<path d="M989-259.1c-27.2,0-54.5,0-81.7,0c-1.7,0-3.6,0-5.2-0.7c-2.6-1.1-3.9-3.4-3.7-6.3c0.3-2.8,1.9-4.8,4.6-5.6
		c1.2-0.4,2.6-0.4,3.8-0.4c54.8,0,109.7,0,164.5,0c1.5,0,3,0.1,4.4,0.5c2.8,0.9,4.6,4,4.2,6.8c-0.5,3-2.6,5.2-5.7,5.5
		c-1.2,0.1-2.4,0.1-3.6,0.1C1043.5-259.1,1016.2-259.1,989-259.1z"/>
	<path d="M989-323.8c-27.2,0-54.5,0-81.7,0c-1.7,0-3.6,0-5.2-0.7c-2.6-1.1-3.9-3.4-3.7-6.3c0.3-2.8,1.9-4.8,4.6-5.6
		c1.2-0.4,2.6-0.4,3.8-0.4c54.8,0,109.7,0,164.5,0c1.5,0,3,0.1,4.4,0.5c2.8,0.9,4.6,4,4.2,6.8c-0.5,3-2.6,5.2-5.7,5.5
		c-1.2,0.1-2.4,0.1-3.6,0.1C1043.5-323.8,1016.2-323.8,989-323.8z"/>
</g>
<g>
	<rect x="1343.1" y="-336.8" width="142.9" height="14.8"/>
	<rect x="1343.1" y="-273.3" width="142.9" height="14.8"/>
	<rect x="1343.1" y="-209.8" width="142.9" height="14.8"/>
</g>
<g>
	<path d="M1424.1,29.7c-22.6,0-45.2,0-67.8,0c-5.7,0-9.9-2.1-12.2-7.4c-3.2-7.4,1.5-15.6,9.5-16.8c1.2-0.2,2.5-0.2,3.7-0.2
		c44.8,0,89.7,0,134.5,0c6.7,0,11.3,2.8,13.2,8.1c2.7,7.5-2.5,15.7-10.5,16.2c-5.1,0.3-10.2,0.1-15.2,0.1
		C1460.9,29.7,1442.5,29.7,1424.1,29.7z"/>
	<path d="M1443.4,99.5c-16.5,0-33,0-49.5,0c-5.8,0-10.3-3.7-11.6-9.1c-1.4-5.6,0.9-11.2,6.1-13.7c1.9-1,4.3-1.5,6.5-1.5
		c32.7-0.1,65.3-0.1,98,0c7.5,0,13,5.4,12.9,12.4c-0.1,6.8-5.5,12-12.9,12C1476.4,99.5,1459.9,99.5,1443.4,99.5z"/>
	<path d="M1465.1,169.1c-8.8,0-17.6,0-26.4,0c-8.3,0-13.7-4.8-13.7-12.1c0-7.4,5.4-12.3,13.6-12.3c17.8,0,35.7,0,53.5,0
		c8,0,13.6,5.2,13.5,12.5c-0.1,7-5.8,11.9-13.7,11.9C1482.9,169.1,1474,169.1,1465.1,169.1z"/>
</g>
<g>
	<path d="M86.9,500.5c22.9,0,45.9,0,68.8,0c5.6,0,10.1,3.4,11.8,8.5c1.6,4.9,0.2,10.3-4.2,13.2c-2.2,1.5-5.2,2.6-7.8,2.6
		c-45.8,0.2-91.5,0.1-137.3,0.1c-7.2,0-12.7-5.5-12.6-12.3c0.1-6.8,5.6-12.1,12.8-12.1C41.2,500.5,64.1,500.5,86.9,500.5z"/>
	<path d="M86.8,385.5c-22.4,0-44.7,0.1-67.1-0.1c-2.9,0-6.1-0.8-8.7-2.1c-4.4-2.4-6.3-7.6-5.3-12.2c1.1-5.1,5-8.9,10.1-9.6
		c1.2-0.2,2.5-0.3,3.7-0.3c44.9,0,89.7,0,134.6,0c7.3,0,11.9,3.2,13.5,9.4c1.8,6.7-2.8,13.8-9.7,14.8c-1.6,0.2-3.2,0.2-4.7,0.2
		C131.1,385.5,109,385.5,86.8,385.5z"/>
	<path d="M67.4,455.3c-16.4,0-32.7,0.1-49.1,0c-9.4-0.1-15.4-9-11.6-17.1c2.5-5.3,7-7.3,12.7-7.3c18.2,0,36.4,0,54.5,0
		c14.1,0,28.2-0.1,42.3,0c9,0.1,14.9,7.4,12.7,15.5c-1.4,5.3-6.1,8.8-12.2,8.9c-12.3,0.1-24.6,0-36.9,0
		C75.7,455.3,71.6,455.3,67.4,455.3z"/>
</g>
<g>
	<path d="M548.2,780.4c15.5,0,31.1-0.1,46.6,0c7.4,0,13.2,4.7,14.9,11.7c1.7,6.6-1.1,13.7-7.2,16.9c-2.5,1.3-5.6,2.1-8.5,2.1
		c-30.5,0.1-61,0.1-91.5,0.1c-9.5,0-16.4-6.5-16.5-15.3c-0.1-8.8,7-15.5,16.6-15.5C517.8,780.4,533,780.4,548.2,780.4z"/>
	<path d="M548.4,845.2c15.4,0,30.8,0,46.3,0c7.4,0,13.2,4.6,15,11.6c1.7,6.6-1,13.7-7.1,16.9c-2.5,1.3-5.6,2.1-8.5,2.2
		c-30.6,0.2-61.2,0.1-91.9,0.1c-9.4,0-16.4-6.7-16.3-15.5c0.1-8.7,7.1-15.3,16.5-15.3C517.8,845.2,533.1,845.2,548.4,845.2z"/>
	<path d="M548.3,715.6c15.5,0,31.1-0.1,46.6,0c7.7,0,13.8,5.2,15.2,12.6c1.3,6.8-2.5,14-9,16.7c-1.8,0.7-3.8,1.3-5.8,1.3
		c-31.5,0.1-63,0.1-94.5,0c-7,0-12.6-4.9-14.2-11.3c-1.7-6.7,0.9-13.7,6.9-17c2.6-1.4,5.8-2.2,8.8-2.2
		C517.6,715.5,532.9,715.6,548.3,715.6z"/>
	<path d="M458.5,746.3c-8.1-0.1-14.9-7.3-14.8-15.6c0.1-8.2,7.5-15.3,15.7-15.1c8,0.2,14.8,7.6,14.6,15.8
		C473.8,739.7,466.8,746.4,458.5,746.3z"/>
	<path d="M474,796c0,8.2-6.9,15.1-15.2,15.1c-8.1,0-15.2-7.3-15.1-15.7c0.1-8,7.3-15.1,15.5-15C467.1,780.4,474,787.7,474,796z"/>
	<path d="M474,860.6c0.1,8.2-6.8,15.1-15.1,15.3c-8.1,0.2-15.2-7.1-15.2-15.5c0-8,7.2-15.1,15.3-15.2
		C466.9,845.1,474,852.4,474,860.6z"/>
</g>
<g>
	<path d="M928.9,730.8c0,8.3-7,15.2-15.3,15.2c-8.2,0-15.3-7.3-15.2-15.8c0.1-8.1,7.4-15.2,15.6-15.2
		C922,715.1,929,722.5,928.9,730.8z"/>
	<path d="M913.5,811.3c-8.1-0.1-15-7.3-15-15.6c0-8.2,7.4-15.5,15.7-15.3c8,0.1,14.9,7.5,14.8,15.8
		C928.8,804.5,921.8,811.4,913.5,811.3z"/>
	<path d="M928.9,861.3c-0.1,8.3-7.1,15.2-15.4,15.2c-8.2,0-15.3-7.4-15.1-15.9c0.2-8.1,7.5-15.2,15.6-15.1
		C922.1,845.7,929,853,928.9,861.3z"/>
</g>
<g>
	<path d="M980.4,434.6c23.8,0,47.6,0,71.4,0c6.2,0,10.2,3.9,9.6,9.3c-0.4,4-3.3,6.9-7.2,7.4c-1.3,0.2-2.7,0.1-4.1,0.1
		c-46.8,0-93.7,0-140.5,0c-7.2,0-11.2-3-11.2-8.5c0-5.5,3.9-8.4,11.2-8.4C933.2,434.6,956.8,434.6,980.4,434.6z"/>
	<path d="M979.7,361.2c13.3,0,26.5,0,39.8,0c5.7,0,9.5,3.3,9.5,8.3c0.1,4.9-3.8,8.6-9.4,8.6c-26.6,0-53.2,0-79.8,0
		c-5.9,0-9.6-3.5-9.5-8.7c0.1-5,3.7-8.1,9.6-8.2C953.2,361.2,966.5,361.2,979.7,361.2z"/>
	<path d="M979.5,524.7c-13.6,0-27.2,0-40.8,0c-4.8,0-8.3-3.4-8.4-8c-0.2-4.6,2.9-8.2,7.7-8.8c1.2-0.2,2.5-0.1,3.7-0.1
		c18.8,0,37.6,0,56.4,0c7.1,0,14.3-0.2,21.4,0.1c2.2,0.1,4.7,0.9,6.5,2.2c3,2.1,3.7,5.8,2.4,9.2c-1.3,3.5-4.1,5.4-8.2,5.5
		C1006.7,524.8,993.1,524.7,979.5,524.7z"/>
</g>
<g>
	<path d="M75.8,715.7c55.8,0,111.3,0,167.1,0c0,10.5,0,20.9,0,31.5c-55.6,0-111.2,0-167.1,0C75.8,736.8,75.8,726.4,75.8,715.7z"/>
	<path d="M242.9,810.5c-55.8,0-111.4,0-167.1,0c0-10.5,0-21,0-31.6c55.7,0,111.3,0,167.1,0C242.9,789.5,242.9,799.8,242.9,810.5z"/>
	<path d="M75.7,876.1c0-10.4,0-20.8,0-31.4c55.6,0,111.2,0,167.1,0c0,10.4,0,20.7,0,31.4C187.3,876.1,131.6,876.1,75.7,876.1z"/>
	<path d="M52.1,747.3c-12.4,0-24.5,0-36.9,0c0-10.5,0-20.9,0-31.5c12.2,0,24.4,0,36.9,0C52.1,726.3,52.1,736.8,52.1,747.3z"/>
	<path d="M52.2,779.2c0,10.4,0,20.7,0,31.3c-12.4,0-24.6,0-37,0c0-10.4,0-20.6,0-31.3C27.3,779.2,39.5,779.2,52.2,779.2z"/>
	<path d="M52.1,876.3c-12.4,0-24.5,0-36.9,0c0-10.6,0-21,0-31.6c12.4,0,24.6,0,36.9,0C52.1,855.3,52.1,865.8,52.1,876.3z"/>
</g>
<g>
	<path d="M81.8,31.1c-22.8,0-45.7,0-68.5,0c-9.1,0-15-7.8-12.1-16C2.8,10.5,6,7.7,10.8,7c1.6-0.2,3.2-0.3,4.7-0.3
		c44.3,0,88.6,0,132.9,0c2.3,0,4.8,0.2,7,0.9c5.2,1.8,8.5,7.5,7.6,12.6c-0.9,6-5.5,10.5-11.4,10.7c-7.6,0.2-15.1,0.1-22.7,0.1
		C113.2,31.1,97.5,31.1,81.8,31.1z"/>
	<path d="M62.5,100.8c-16.6,0-33.2,0-49.8,0c-6.1,0-10.9-4.1-12-9.9c-1.1-5.5,2-11.3,7.4-13.4c1.7-0.7,3.7-1,5.6-1
		c32.4-0.1,64.8-0.1,97.2,0c6.3,0,11,3.1,12.8,8.2c1.7,4.8,0.2,10.6-4.3,13.5c-2.4,1.6-5.6,2.5-8.5,2.5
		C94.8,101,78.6,100.8,62.5,100.8z"/>
	<path d="M40.9,170.5c-9,0-18.1,0-27.1,0c-7.6,0-13.2-5.2-13.3-12c-0.1-7.1,5.5-12.4,13.2-12.4c18.2,0,36.4,0,54.6,0
		c7.5,0,12.9,5.3,12.9,12.3c0,6.9-5.4,12-12.8,12C59.2,170.5,50,170.5,40.9,170.5z"/>
</g>
<g>
	<path d="M1358.9,811.7c-8.5,0-15.7-7.1-15.8-15.7c-0.1-8.5,7.3-15.8,16.2-15.7c8.7,0.1,15.6,7.1,15.6,15.9
		C1374.9,804.7,1367.7,811.7,1358.9,811.7z"/>
	<path d="M1426.1,811.7c-8.5,0-15.6-7.3-15.6-15.9c0-8.4,7.3-15.5,16.1-15.5c8.8,0,15.8,7.2,15.7,16.1
		C1442.2,804.9,1434.9,811.8,1426.1,811.7z"/>
	<path d="M1509.7,795.9c0.1,8.5-6.9,15.7-15.6,15.8c-8.7,0.2-16.1-7-16.2-15.7c-0.1-8.4,7.1-15.5,15.9-15.6
		C1502.3,780.2,1509.5,787.2,1509.7,795.9z"/>
</g>
<g>
	<path d="M979.6,170.6c-22.6,0-45.2,0-67.8,0c-9.3,0-15.4-7.7-12.7-16c1.6-5,6.2-8.4,11.9-8.4c7.7-0.1,15.4,0,23.1,0
		c38,0,75.9,0,113.9,0c9.2,0,15.3,7.9,12.5,16.1c-1.8,5.2-6.4,8.3-12.7,8.3C1025,170.6,1002.3,170.6,979.6,170.6z"/>
	<path d="M960.4,100.9c-16.5,0-33,0-49.5,0c-5.6,0-10-3.2-11.8-8c-1.7-4.8-0.5-10.4,3.8-13.3c2.4-1.6,5.6-2.8,8.4-2.9
		c32.6-0.2,65.3-0.2,97.9-0.1c7.7,0,13.2,5.5,13,12.6c-0.2,6.7-5.7,11.7-13.2,11.7C993,100.9,976.7,100.9,960.4,100.9z"/>
	<path d="M938.7,31.1c-9.6,0-19.2,0.2-28.8-0.1c-5.8-0.1-10.2-4.4-11.3-9.9c-1-5.2,1.8-10.9,6.9-13.1c1.9-0.8,4.1-1.2,6.2-1.2
		c18.1-0.1,36.1-0.1,54.2,0c6.7,0,11.5,3.7,12.9,9.4c1.3,5.4-1.3,11.2-6.5,13.6c-2.1,0.9-4.6,1.3-6.9,1.3
		C956.6,31.2,947.7,31.1,938.7,31.1C938.7,31.1,938.7,31.1,938.7,31.1z"/>
</g>
<g>
	<path d="M80.8,1144.1c-25.2,0-50.1,0-75.3,0c0-25.2,0-50.2,0-75.5c25,0,50.1,0,75.3,0C80.8,1093.7,80.8,1118.8,80.8,1144.1z"/>
	<path d="M100.5,1068.6c25.1,0,50.1,0,75.2,0c0,25.1,0,50.2,0,75.4c-25,0-50,0-75.2,0C100.5,1119,100.5,1093.9,100.5,1068.6z"/>
	<path d="M5.5,1163.6c25.1,0,50.1,0,75.3,0c0,25.1,0,50.2,0,75.4c-25.1,0-50.1,0-75.3,0C5.5,1213.9,5.5,1188.8,5.5,1163.6z"/>
	<path d="M100.4,1239c0-25.2,0-50.2,0-75.3c25.1,0,50.2,0,75.4,0c0,25.1,0,50.1,0,75.3C150.7,1239,125.7,1239,100.4,1239z"/>
</g>
<g>
	<path d="M533.5,500.4c25.5,0,50.9,0,76.4,0c2.4,0,4.8,0.2,7.1,0.8c5.3,1.3,8.3,5.7,8.1,11.3c-0.2,5.3-3.9,9.6-9.2,10.6
		c-1.8,0.3-3.6,0.5-5.4,0.5c-51.4,0-102.7,0-154.1,0c-5.2,0-10.1-0.7-13.1-5.8c-3.9-6.5-0.9-14.6,6.3-16.6c2.4-0.6,5-0.8,7.5-0.8
		C482.6,500.3,508,500.4,533.5,500.4z"/>
	<path d="M533.6,362.5c25.6,0,51.2,0,76.8,0c2,0,4,0.1,5.9,0.5c5.2,1,8.5,4.9,8.8,9.9c0.3,5.9-2.4,10.1-7.7,11.6
		c-2.3,0.6-4.7,0.9-7.1,0.9c-51.4,0.1-102.7,0-154.1,0c-2.1,0-4.2-0.2-6.3-0.7c-5.6-1.4-8.6-5.6-8.4-11.5c0.2-5.5,3.6-9.3,9.3-10.3
		c1.8-0.3,3.6-0.4,5.5-0.4C482.1,362.5,507.9,362.5,533.6,362.5z"/>
	<path d="M493,454.6c-12.8,0-25.6,0.1-38.4,0c-7.7-0.1-12.4-4.2-13-11c-0.4-5.4,2.7-10,8-11.3c2.4-0.6,5-0.8,7.5-0.8
		c23.9-0.1,47.8,0,71.7,0c2.1,0,4.2,0.1,6.3,0.5c5.7,1,9.3,5,9.6,10.2c0.3,5.7-3.5,10.7-9.2,12c-1.8,0.4-3.6,0.5-5.4,0.5
		C517.8,454.6,505.4,454.6,493,454.6z"/>
</g>
<g>
	<path d="M539.7-190.4c-27.6,0-55.2,0-82.7,0c-7.6,0-12.5-4-13.2-10.5c-0.7-6.5,3.6-12.1,10.1-13c0.8-0.1,1.7-0.1,2.5-0.1
		c55.6,0,111.3,0,166.9,0c3.8,0,7.1,1,9.8,3.8c6.3,6.8,3,17.4-6,19.4c-1.7,0.4-3.6,0.4-5.3,0.4C594.4-190.3,567.1-190.4,539.7-190.4
		z"/>
	<path d="M539.7-253.8c-27.6,0-55.2,0-82.7,0c-7.6,0-12.5-4-13.2-10.5c-0.7-6.5,3.6-12.1,10.1-13c0.8-0.1,1.7-0.1,2.5-0.1
		c55.6,0,111.3,0,166.9,0c3.8,0,7.1,1,9.8,3.8c6.3,6.8,3,17.4-6,19.4c-1.7,0.4-3.6,0.4-5.3,0.4C594.4-253.8,567.1-253.8,539.7-253.8
		z"/>
	<path d="M539.7-317.3c-27.6,0-55.2,0-82.7,0c-7.6,0-12.5-4-13.2-10.5c-0.7-6.5,3.6-12.1,10.1-13c0.8-0.1,1.7-0.1,2.5-0.1
		c55.6,0,111.3,0,166.9,0c3.8,0,7.1,1,9.8,3.8c6.3,6.8,3,17.4-6,19.4c-1.7,0.4-3.6,0.4-5.3,0.4C594.4-317.3,567.1-317.3,539.7-317.3
		z"/>
</g>
<g>
	<rect x="1342" y="1068.2" width="51.8" height="171.2"/>
	<rect x="1427.2" y="1068.2" width="51.8" height="171.2"/>
</g>
<g>
	
		<rect x="958.1" y="1008.9" transform="matrix(-1.836970e-16 1 -1 -1.836970e-16 2078.5244 110.4946)" width="51.8" height="171.2"/>
	
		<rect x="958.1" y="1094.2" transform="matrix(-1.836970e-16 1 -1 -1.836970e-16 2163.7874 195.7576)" width="51.8" height="171.2"/>
</g>
</svg>
