<svg xmlns="http://www.w3.org/2000/svg" xmlns:xlink="http://www.w3.org/1999/xlink" width="39" height="37" viewBox="0 0 39 37"><defs><style>.a{fill:#fff;stroke:#707070;}.b{clip-path:url(#a);}.c{fill:#f0f0f0;}.d{fill:#0052b4;}.e{fill:#d80027;}</style><clipPath id="a"><rect class="a" width="39" height="37" transform="translate(948 27)"/></clipPath></defs><g class="b" transform="translate(-948 -27)"><g transform="translate(949 27)"><circle class="c" cx="18.5" cy="18.5" r="18.5"/><path class="d" d="M3.824,7.237A18.433,18.433,0,0,0,.637,13.674h9.624Z"/><path class="d" d="M36.363,13.674a18.434,18.434,0,0,0-3.187-6.437l-6.437,6.437Z"/><path class="d" d="M.637,23.326a18.434,18.434,0,0,0,3.187,6.437l6.437-6.437Z"/><path class="d" d="M29.763,3.824A18.434,18.434,0,0,0,23.326.637v9.624Z"/><path class="d" d="M7.237,33.176a18.434,18.434,0,0,0,6.437,3.187V26.739Z"/><path class="d" d="M13.674.637A18.434,18.434,0,0,0,7.237,3.824l6.437,6.437Z"/><path class="d" d="M23.326,36.363a18.434,18.434,0,0,0,6.437-3.187l-6.437-6.437v9.624Z"/><path class="d" d="M26.739,23.326l6.437,6.437a18.433,18.433,0,0,0,3.187-6.437Z"/><path class="e" d="M36.843,16.087H20.913V.157a18.67,18.67,0,0,0-4.826,0v15.93H.157a18.67,18.67,0,0,0,0,4.826h15.93v15.93a18.67,18.67,0,0,0,4.826,0V20.913h15.93a18.67,18.67,0,0,0,0-4.826Z"/><path class="e" d="M23.326,23.326h0l8.255,8.255q.57-.569,1.087-1.188L25.6,23.326H23.326Z"/><path class="e" d="M13.674,23.326h0L5.418,31.581q.569.57,1.188,1.087L13.674,25.6V23.326Z"/><path class="e" d="M13.674,13.674h0L5.419,5.418q-.57.569-1.087,1.188L11.4,13.674h2.275Z"/><path class="e" d="M23.326,13.674h0l8.255-8.255q-.569-.57-1.188-1.087L23.326,11.4Z"/></g></g></svg>